<svg width="30" height="30" viewBox="0 0 30 30" fill="none" xmlns="http://www.w3.org/2000/svg">
<g clip-path="url(#clip0_85_472)">
<path d="M29.5 7.30905H22.6908V0.499976C22.6908 0.494422 22.6894 0.489295 22.6892 0.483782C22.6885 0.465879 22.6863 0.44818 22.6838 0.430277C22.6815 0.41447 22.6794 0.398805 22.6759 0.383506C22.6723 0.368736 22.6672 0.354353 22.6622 0.339766C22.6562 0.322128 22.65 0.304795 22.6422 0.288113C22.6399 0.283291 22.6389 0.278205 22.6365 0.273424C22.6322 0.265266 22.6264 0.258634 22.622 0.250802C22.6125 0.234526 22.6028 0.218719 22.5915 0.203685C22.5826 0.19156 22.573 0.18037 22.5632 0.169242C22.5517 0.156344 22.54 0.143955 22.5273 0.132297C22.516 0.122024 22.5043 0.112625 22.4923 0.10347C22.4786 0.0930537 22.4646 0.0832886 22.45 0.0742965C22.4373 0.0666064 22.4244 0.0597709 22.4112 0.0532607C22.3956 0.0455504 22.38 0.0385316 22.3634 0.0324488C22.3492 0.0271797 22.3347 0.0229684 22.3201 0.0190014C22.3041 0.0146884 22.288 0.010823 22.2714 0.00811728C22.2543 0.00526912 22.2371 0.00392641 22.2195 0.00288886C22.2099 0.00231922 22.2006 0 22.1909 0H0.499973C0.223946 0 0 0.223785 0 0.499976V22.191C0 22.4672 0.223946 22.691 0.499973 22.691H7.30917V29.5C7.30917 29.7762 7.53312 30 7.80915 30H29.5C29.7761 30 30 29.7762 30 29.5V7.80903C30 7.53284 29.7761 7.30905 29.5 7.30905ZM20.8739 7.30905L21.6909 6.01377V7.30905H20.8739ZM9.8966 7.30905L10.7976 6.85117L10.5087 7.30905H9.8966ZM11.3775 6.55648L12.0776 6.20058L11.3785 7.30905H10.9027L11.3775 6.55648ZM12.6575 5.90588L13.4054 5.52581L12.2807 7.30905H11.7725L12.6575 5.90588ZM13.9852 5.23115L14.6857 4.87513L13.1508 7.30905H12.6748L13.9852 5.23115ZM15.2656 4.58047L16.0405 4.1866L14.0713 7.30905H13.5448L15.2656 4.58047ZM16.6204 3.89194L17.321 3.53588L14.9411 7.30905H14.4654L16.6204 3.89194ZM17.9007 3.2412L18.6487 2.86109L15.8434 7.30905H15.3351L17.9007 3.2412ZM19.2284 2.5664L19.9289 2.21046L16.7134 7.30905H16.2374L19.2284 2.5664ZM20.5087 1.9158L21.3828 1.47157L17.71 7.30905H17.1075L20.5087 1.9158ZM21.6909 1.60732V2.42853L18.6128 7.30905H18.1035L21.6909 1.60732ZM21.6909 3.0532V3.80812L19.4828 7.30905H19.0068L21.6909 3.0532ZM21.6909 4.43279V5.38914L20.4798 7.30905H19.8769L21.6909 4.43279ZM0.999946 21.691V0.999951H20.1034L7.5826 7.36325C7.57381 7.36774 7.56665 7.37405 7.55818 7.37899C7.54305 7.38784 7.52824 7.39688 7.51408 7.40721C7.5009 7.41692 7.48869 7.42735 7.47665 7.43817C7.46476 7.44871 7.45353 7.45941 7.44279 7.47103C7.4314 7.48338 7.42098 7.49622 7.41106 7.50954C7.40162 7.52203 7.39283 7.53469 7.38453 7.54805C7.37606 7.56189 7.36858 7.57599 7.36142 7.59051C7.35442 7.60502 7.34775 7.61962 7.34205 7.63488C7.33635 7.65018 7.3318 7.66564 7.32773 7.68143C7.32366 7.69658 7.31992 7.7117 7.31747 7.72739C7.31438 7.74517 7.31308 7.76299 7.31194 7.78107C7.31145 7.79051 7.30917 7.79944 7.30917 7.80903V21.691H0.999946ZM29.0001 29H9.52878L9.74296 28.8912C9.90701 28.8077 9.97244 28.607 9.88911 28.4429C9.80513 28.2786 9.60462 28.2131 9.44089 28.2968L8.30912 28.872V22.5243H8.5744C8.75864 22.5243 8.90772 22.375 8.90772 22.191C8.90772 22.0069 8.75864 21.8577 8.5744 21.8577H8.30912V8.309H21.8575V9.80893C21.8575 9.993 22.0066 10.1422 22.1909 10.1422C22.3751 10.1422 22.5242 9.993 22.5242 9.80893V8.309H29.0001V29Z" fill="white"/>
<rect x="8" y="8" width="21" height="21" fill="white"/>
</g>
<defs>
<clipPath id="clip0_85_472">
<rect width="30" height="30" fill="white"/>
</clipPath>
</defs>
</svg>
