<svg width="502" height="311" viewBox="0 0 502 311" fill="none" xmlns="http://www.w3.org/2000/svg">
<path d="M0.37616 10C0.37616 4.47716 4.85331 0 10.3762 0H138.965C157.936 0 173.315 15.379 173.315 34.3501V34.3501C173.315 36.2472 171.778 37.7851 169.88 37.7851H4.37615C2.16701 37.7851 0.37616 35.9942 0.37616 33.7851V10Z" fill="url(#paint0_linear_125_492)"/>
<path d="M0.376099 40.3457C0.376099 29.3 9.3304 20.3457 20.3761 20.3457H481.755C492.8 20.3457 501.755 29.3 501.755 40.3457V281C501.755 297.569 488.323 311 471.755 311H30.3761C13.8075 311 0.376099 297.569 0.376099 281L0.376099 40.3457Z" fill="url(#paint1_linear_125_492)"/>
<defs>
<linearGradient id="paint0_linear_125_492" x1="86.8458" y1="0" x2="86.8458" y2="37.7851" gradientUnits="userSpaceOnUse">
<stop stop-color="#494949"/>
<stop offset="1" stop-color="#060606"/>
</linearGradient>
<linearGradient id="paint1_linear_125_492" x1="251.065" y1="20.3457" x2="251.065" y2="311" gradientUnits="userSpaceOnUse">
<stop stop-color="#3F3F3F"/>
<stop offset="1" stop-color="#040404"/>
</linearGradient>
</defs>
</svg>
