<svg width="195" height="47" viewBox="0 0 195 47" fill="none" xmlns="http://www.w3.org/2000/svg">
<g clip-path="url(#clip0_86_472)">
<path d="M29.5 15.3091H22.6908V8.49998C22.6908 8.49442 22.6894 8.48929 22.6892 8.48378C22.6885 8.46588 22.6863 8.44818 22.6838 8.43028C22.6815 8.41447 22.6794 8.3988 22.6759 8.38351C22.6723 8.36874 22.6672 8.35435 22.6622 8.33977C22.6562 8.32213 22.65 8.30479 22.6422 8.28811C22.6399 8.28329 22.6389 8.27821 22.6365 8.27342C22.6322 8.26527 22.6264 8.25863 22.622 8.2508C22.6125 8.23453 22.6028 8.21872 22.5915 8.20368C22.5826 8.19156 22.573 8.18037 22.5632 8.16924C22.5517 8.15634 22.54 8.14395 22.5273 8.1323C22.516 8.12202 22.5043 8.11262 22.4923 8.10347C22.4786 8.09305 22.4646 8.08329 22.45 8.0743C22.4373 8.06661 22.4244 8.05977 22.4112 8.05326C22.3956 8.04555 22.38 8.03853 22.3634 8.03245C22.3492 8.02718 22.3347 8.02297 22.3201 8.019C22.3041 8.01469 22.288 8.01082 22.2714 8.00812C22.2543 8.00527 22.2371 8.00393 22.2195 8.00289C22.2099 8.00232 22.2006 8 22.1909 8H0.499973C0.223946 8 0 8.22378 0 8.49998V30.191C0 30.4672 0.223946 30.691 0.499973 30.691H7.30917V37.5C7.30917 37.7762 7.53312 38 7.80915 38H29.5C29.7761 38 30 37.7762 30 37.5V15.809C30 15.5328 29.7761 15.3091 29.5 15.3091ZM20.8739 15.3091L21.6909 14.0138V15.3091H20.8739ZM9.8966 15.3091L10.7976 14.8512L10.5087 15.3091H9.8966ZM11.3775 14.5565L12.0776 14.2006L11.3785 15.3091H10.9027L11.3775 14.5565ZM12.6575 13.9059L13.4054 13.5258L12.2807 15.3091H11.7725L12.6575 13.9059ZM13.9852 13.2311L14.6857 12.8751L13.1508 15.3091H12.6748L13.9852 13.2311ZM15.2656 12.5805L16.0405 12.1866L14.0713 15.3091H13.5448L15.2656 12.5805ZM16.6204 11.8919L17.321 11.5359L14.9411 15.3091H14.4654L16.6204 11.8919ZM17.9007 11.2412L18.6487 10.8611L15.8434 15.3091H15.3351L17.9007 11.2412ZM19.2284 10.5664L19.9289 10.2105L16.7134 15.3091H16.2374L19.2284 10.5664ZM20.5087 9.9158L21.3828 9.47157L17.71 15.3091H17.1075L20.5087 9.9158ZM21.6909 9.60732V10.4285L18.6128 15.3091H18.1035L21.6909 9.60732ZM21.6909 11.0532V11.8081L19.4828 15.3091H19.0068L21.6909 11.0532ZM21.6909 12.4328V13.3891L20.4798 15.3091H19.8769L21.6909 12.4328ZM0.999946 29.691V8.99995H20.1034L7.5826 15.3632C7.57381 15.3677 7.56665 15.3741 7.55818 15.379C7.54305 15.3878 7.52824 15.3969 7.51408 15.4072C7.5009 15.4169 7.48869 15.4274 7.47665 15.4382C7.46476 15.4487 7.45353 15.4594 7.44279 15.471C7.4314 15.4834 7.42098 15.4962 7.41106 15.5095C7.40162 15.522 7.39283 15.5347 7.38453 15.5481C7.37606 15.5619 7.36858 15.576 7.36142 15.5905C7.35442 15.605 7.34775 15.6196 7.34205 15.6349C7.33635 15.6502 7.3318 15.6656 7.32773 15.6814C7.32366 15.6966 7.31992 15.7117 7.31747 15.7274C7.31438 15.7452 7.31308 15.763 7.31194 15.7811C7.31145 15.7905 7.30917 15.7994 7.30917 15.809V29.691H0.999946ZM29.0001 37H9.52878L9.74296 36.8912C9.90701 36.8077 9.97244 36.607 9.88911 36.4429C9.80513 36.2786 9.60462 36.2131 9.44089 36.2968L8.30912 36.872V30.5243H8.5744C8.75864 30.5243 8.90772 30.375 8.90772 30.191C8.90772 30.0069 8.75864 29.8577 8.5744 29.8577H8.30912V16.309H21.8575V17.8089C21.8575 17.993 22.0066 18.1422 22.1909 18.1422C22.3751 18.1422 22.5242 17.993 22.5242 17.8089V16.309H29.0001V37Z" fill="black"/>
<rect x="8" y="16" width="21" height="21" fill="black"/>
</g>
<path d="M40.52 38V10.08H61.6V15.48H47.12V20.88H56.6V26.28H47.12V38H40.52ZM77.0156 38.48C74.6423 38.48 72.6023 38.0133 70.8956 37.08C69.189 36.1467 67.869 34.8133 66.9356 33.08C66.029 31.3467 65.5756 29.28 65.5756 26.88C65.5756 24.4533 66.029 22.3867 66.9356 20.68C67.869 18.9467 69.189 17.6133 70.8956 16.68C72.6023 15.7467 74.6423 15.28 77.0156 15.28C80.589 15.28 83.3756 16.3067 85.3756 18.36C87.4023 20.4133 88.4156 23.2533 88.4156 26.88C88.4156 29.28 87.9623 31.3467 87.0556 33.08C86.149 34.8133 84.8423 36.1467 83.1356 37.08C81.429 38.0133 79.389 38.48 77.0156 38.48ZM77.0156 33.44C78.6156 33.44 79.869 32.8533 80.7756 31.68C81.709 30.5067 82.1756 28.9067 82.1756 26.88C82.1756 24.8267 81.709 23.2267 80.7756 22.08C79.869 20.9067 78.6156 20.32 77.0156 20.32C75.389 20.32 74.109 20.9067 73.1756 22.08C72.269 23.2267 71.8156 24.8267 71.8156 26.88C71.8156 28.9067 72.269 30.5067 73.1756 31.68C74.109 32.8533 75.389 33.44 77.0156 33.44ZM99.9113 38V8.4H106.151V38H99.9113ZM92.7113 38V32.96H113.431V38H92.7113ZM95.5113 13.44V8.4H103.031V13.44H95.5113ZM127.527 15.28C128.807 15.28 130.007 15.52 131.127 16C132.247 16.4533 133.18 17.08 133.927 17.88V8.4H140.127V38H134.127L134.007 35.76C133.26 36.5867 132.327 37.2533 131.207 37.76C130.087 38.24 128.86 38.48 127.527 38.48C125.607 38.48 123.9 37.96 122.407 36.92C120.914 35.88 119.74 34.48 118.887 32.72C118.034 30.96 117.607 29.0133 117.607 26.88C117.607 24.72 118.034 22.76 118.887 21C119.74 19.24 120.914 17.8533 122.407 16.84C123.9 15.8 125.607 15.28 127.527 15.28ZM129.127 33.36C130.247 33.36 131.234 33.0133 132.087 32.32C132.94 31.6 133.554 30.6667 133.927 29.52V24.2C133.554 23.0267 132.94 22.1067 132.087 21.44C131.234 20.7467 130.247 20.4 129.127 20.4C128.114 20.4 127.207 20.6933 126.407 21.28C125.607 21.84 124.98 22.6133 124.527 23.6C124.074 24.56 123.847 25.6533 123.847 26.88C123.847 28.08 124.074 29.1733 124.527 30.16C124.98 31.12 125.607 31.8933 126.407 32.48C127.207 33.0667 128.114 33.36 129.127 33.36ZM155.263 38.48C152.863 38.48 150.796 38.0133 149.063 37.08C147.356 36.1467 146.036 34.8133 145.103 33.08C144.169 31.3467 143.703 29.28 143.703 26.88C143.703 24.4533 144.169 22.3733 145.103 20.64C146.036 18.9067 147.383 17.5867 149.143 16.68C150.929 15.7467 153.076 15.28 155.583 15.28C159.503 15.28 162.343 16.4 164.102 18.64C165.889 20.8533 166.636 23.9067 166.343 27.8H148.663L148.703 23.52H159.983C159.903 22.5067 159.449 21.6933 158.623 21.08C157.796 20.44 156.769 20.12 155.543 20.12C153.623 20.12 152.209 20.72 151.303 21.92C150.396 23.12 149.943 24.8667 149.943 27.16C149.943 28.3067 150.143 29.36 150.543 30.32C150.943 31.28 151.529 32.0533 152.303 32.64C153.103 33.2 154.089 33.48 155.263 33.48C156.516 33.48 157.569 33.1733 158.423 32.56C159.303 31.9467 159.836 31.1733 160.023 30.24H166.263C165.996 32.7733 164.876 34.7867 162.903 36.28C160.956 37.7467 158.409 38.48 155.263 38.48ZM179.558 15.28C180.838 15.28 182.038 15.52 183.158 16C184.278 16.4533 185.211 17.08 185.958 17.88V8.4H192.158V38H186.158L186.038 35.76C185.291 36.5867 184.358 37.2533 183.238 37.76C182.118 38.24 180.891 38.48 179.558 38.48C177.638 38.48 175.931 37.96 174.438 36.92C172.945 35.88 171.771 34.48 170.918 32.72C170.065 30.96 169.638 29.0133 169.638 26.88C169.638 24.72 170.065 22.76 170.918 21C171.771 19.24 172.945 17.8533 174.438 16.84C175.931 15.8 177.638 15.28 179.558 15.28ZM181.158 33.36C182.278 33.36 183.265 33.0133 184.118 32.32C184.971 31.6 185.585 30.6667 185.958 29.52V24.2C185.585 23.0267 184.971 22.1067 184.118 21.44C183.265 20.7467 182.278 20.4 181.158 20.4C180.145 20.4 179.238 20.6933 178.438 21.28C177.638 21.84 177.011 22.6133 176.558 23.6C176.105 24.56 175.878 25.6533 175.878 26.88C175.878 28.08 176.105 29.1733 176.558 30.16C177.011 31.12 177.638 31.8933 178.438 32.48C179.238 33.0667 180.145 33.36 181.158 33.36Z" fill="black"/>
<defs>
<clipPath id="clip0_86_472">
<rect width="30" height="30" fill="white" transform="translate(0 8)"/>
</clipPath>
</defs>
</svg>
